<svg width="100" height="100" viewBox="0 0 100 100" fill="none" xmlns="http://www.w3.org/2000/svg">
<path d="M50 100C77.6142 100 100 77.6142 100 50C100 22.3858 77.6142 0 50 0C22.3858 0 0 22.3858 0 50C0 77.6142 22.3858 100 50 100Z" fill="#32BA7C"/>
<path d="M37.2239 72.5553L62.9337 98.265C84.2271 92.5868 100 73.1862 100 50.0001C100 49.5269 100 49.0537 100 48.5805L79.8107 29.9685L37.2239 72.5553Z" fill="#0AA06E"/>
<path d="M51.2618 61.1989C53.47 63.4071 53.47 67.1926 51.2618 69.4008L46.6877 73.975C44.4795 76.1832 40.694 76.1832 38.4858 73.975L18.4542 53.7857C16.246 51.5775 16.246 47.792 18.4542 45.5838L23.0284 41.0097C25.2366 38.8015 29.0221 38.8015 31.2303 41.0097L51.2618 61.1989Z" fill="white"/>
<path d="M68.7697 26.3407C70.9779 24.1325 74.7634 24.1325 76.9716 26.3407L81.5457 30.9149C83.7539 33.1231 83.7539 36.9085 81.5457 39.1167L46.8454 73.6593C44.6372 75.8675 40.8517 75.8675 38.6435 73.6593L34.0694 69.0852C31.8612 66.877 31.8612 63.0915 34.0694 60.8833L68.7697 26.3407Z" fill="white"/>
</svg>
