<svg width="90" height="90" viewBox="0 0 90 90" fill="none" xmlns="http://www.w3.org/2000/svg">
<path d="M44.9999 74.3477C61.2083 74.3477 74.3477 61.2083 74.3477 44.9999C74.3477 28.7916 61.2083 15.6521 44.9999 15.6521C28.7916 15.6521 15.6521 28.7916 15.6521 44.9999C15.6521 61.2083 28.7916 74.3477 44.9999 74.3477Z" fill="#FFC107"/>
<path d="M44.9999 11.7391C46.0805 11.7391 46.9565 10.8631 46.9565 9.78254V1.95658C46.9565 0.876032 46.0805 0 44.9999 0C43.9194 0 43.0433 0.876032 43.0433 1.95658V9.78273C43.0435 10.8631 43.9194 11.7391 44.9999 11.7391Z" fill="#FFD54F"/>
<path d="M44.9999 78.261C43.9194 78.261 43.0433 79.137 43.0433 80.2176V88.0435C43.0433 89.1241 43.9194 90.0001 44.9999 90.0001C46.0805 90.0001 46.9565 89.1241 46.9565 88.0435V80.2174C46.9565 79.1368 46.0805 78.261 44.9999 78.261Z" fill="#FFD54F"/>
<path d="M88.0434 43.0435H80.2173C79.1367 43.0435 78.2607 43.9195 78.2607 45C78.2607 46.0806 79.1367 46.9566 80.2173 46.9566H88.0434C89.1239 46.9566 90 46.0806 90 45C90 43.9193 89.1239 43.0435 88.0434 43.0435Z" fill="#FFD54F"/>
<path d="M11.7391 44.9998C11.7391 43.9192 10.8631 43.0432 9.78254 43.0432H1.95658C0.876032 43.0434 0 43.9192 0 44.9998C0 46.0803 0.876032 46.9564 1.95658 46.9564H9.78273C10.8631 46.9564 11.7391 46.0803 11.7391 44.9998Z" fill="#FFD54F"/>
<path d="M25.6969 15.4801C26.0471 16.0867 26.6948 16.4598 27.3953 16.4583C27.7388 16.4596 28.0767 16.3692 28.3735 16.1962C29.3093 15.6558 29.6297 14.4594 29.0895 13.5235L25.1766 6.7462C24.6301 5.81404 23.4315 5.5013 22.4993 6.04772C21.5758 6.58901 21.2588 7.77209 21.788 8.7026L25.6969 15.4801Z" fill="#FFD54F"/>
<path d="M64.303 74.5199C63.7564 73.5878 62.5578 73.2752 61.6256 73.8218C60.7024 74.3633 60.3855 75.546 60.9143 76.4765L64.8273 83.2538C65.1774 83.8604 65.8251 84.2335 66.5256 84.232C66.8691 84.2333 67.207 84.1429 67.5038 83.9699C68.4396 83.4296 68.76 82.2331 68.2199 81.2973L64.303 74.5199Z" fill="#FFD54F"/>
<path d="M75.4982 29.3479C75.8417 29.3491 76.1796 29.2587 76.4764 29.0857L83.2537 25.1728C84.2112 24.6718 84.5813 23.4897 84.0804 22.5322C83.5794 21.5747 82.3973 21.2046 81.4398 21.7055C81.391 21.731 81.3435 21.7585 81.2971 21.788L74.5198 25.701C73.5839 26.2414 73.2635 27.438 73.8037 28.3737C74.1531 28.979 74.7989 29.3519 75.498 29.3519V29.3479H75.4982Z" fill="#FFD54F"/>
<path d="M13.5235 60.9144L6.74616 64.8273C5.81033 65.3677 5.48989 66.5642 6.03007 67.5C6.37949 68.1053 7.02533 68.4782 7.72435 68.4782C8.06791 68.4795 8.40577 68.3891 8.70255 68.2161L15.4799 64.3031C16.4374 63.8022 16.8075 62.62 16.3066 61.6626C15.8056 60.7051 14.6235 60.3349 13.666 60.8359C13.6172 60.8614 13.5697 60.8889 13.5233 60.9184L13.5235 60.9144Z" fill="#FFD54F"/>
<path d="M6.74616 25.1726L13.5235 29.0856C13.8194 29.2578 14.1556 29.3484 14.4978 29.3477C15.5784 29.3477 16.4542 28.4717 16.4542 27.3911C16.4542 26.6923 16.0813 26.0464 15.476 25.6968L8.69871 21.7839C7.78672 21.2042 6.57759 21.4735 5.99798 22.3853C5.41836 23.2971 5.68762 24.5064 6.59942 25.086C6.64583 25.1156 6.69334 25.1431 6.74213 25.1686L6.74616 25.1726Z" fill="#FFD54F"/>
<path d="M83.2539 64.8272L76.4765 60.9142C75.5646 60.3346 74.3554 60.6039 73.7758 61.5157C73.1962 62.4275 73.4655 63.6368 74.3773 64.2164C74.4237 64.2459 74.4714 64.2735 74.52 64.2989L81.2973 68.2119C81.5942 68.3849 81.9319 68.4753 82.2755 68.474C83.356 68.474 84.2319 67.598 84.2319 66.5175C84.2319 65.8184 83.859 65.1726 83.2537 64.8232V64.8272H83.2539Z" fill="#FFD54F"/>
<path d="M61.6304 16.1961C61.9273 16.369 62.265 16.4594 62.6086 16.4582C63.3089 16.4596 63.9566 16.0864 64.3069 15.48L68.2199 8.70264C68.7538 7.76332 68.4251 6.56887 67.4858 6.03492C66.5553 5.50611 65.3726 5.82288 64.8311 6.74624L60.9181 13.5236C60.3772 14.4581 60.696 15.6544 61.6304 16.1961Z" fill="#FFD54F"/>
<path d="M28.3696 73.8039C27.4338 73.2638 26.2373 73.5842 25.697 74.52L21.784 81.2974C21.2438 82.2332 21.5642 83.4297 22.5001 83.97C22.797 84.143 23.1347 84.2334 23.4783 84.2321C24.1786 84.2336 24.8264 83.8603 25.1766 83.2539L29.0896 76.4766C29.6288 75.5402 29.3071 74.3439 28.3707 73.8047C28.3704 73.8043 28.37 73.8041 28.3696 73.8039Z" fill="#FFD54F"/>
</svg>
