<svg width="100" height="100" viewBox="0 0 100 100" fill="none" xmlns="http://www.w3.org/2000/svg">
<g clip-path="url(#clip0)">
<path d="M63.074 12.2348L97.9836 72.7002C99.2639 74.9176 100 77.4883 100 80.2327C100 88.5666 93.2438 95.3233 84.9094 95.3233H50L37.9276 50L50 4.677C55.5899 4.677 60.4662 7.7186 63.074 12.2348Z" fill="#3B4145"/>
<path d="M36.926 12.2348L2.01621 72.7002C0.736133 74.9176 0 77.4883 0 80.2327C0 88.5666 6.75625 95.3233 15.0906 95.3233H50V4.677C44.4102 4.677 39.5338 7.7186 36.926 12.2348Z" fill="#525A61"/>
<path d="M92.7565 75.7185L57.8471 15.2537C56.2736 12.5273 53.3844 10.807 50.2596 10.7185L80.1168 89.2878H84.9096C89.9016 89.2878 93.9639 85.2257 93.9639 80.2336C93.9639 78.648 93.5453 77.0867 92.7565 75.7185Z" fill="#FFB751"/>
<path d="M86.8853 75.7185C87.5674 77.0866 87.9275 78.648 87.9275 80.2335C87.9275 85.2255 84.4246 89.2878 80.1166 89.2878H15.0906C10.0986 89.2878 6.03632 85.2255 6.03632 80.2335C6.03632 78.648 6.45487 77.0866 7.24354 75.7185L42.1529 15.2536C43.7707 12.4528 46.7767 10.7124 50 10.7124C50.0865 10.7124 50.173 10.7144 50.2596 10.7185C52.9416 10.8231 55.4185 12.5394 56.7685 15.2536L86.8853 75.7185Z" fill="#FFD764"/>
<path d="M50 69.166V79.2264C52.7787 79.2264 55.0303 76.9748 55.0303 74.1961C55.0303 71.4176 52.7787 69.166 50 69.166Z" fill="#3B4145"/>
<path d="M50 69.166C50.5553 69.166 51.0061 71.4176 51.0061 74.1963C51.0061 76.975 50.5553 79.2266 50 79.2266C47.2213 79.2266 44.9697 76.975 44.9697 74.1963C44.9697 71.4176 47.2213 69.166 50 69.166Z" fill="#525A61"/>
<path d="M50 25.9075V63.1309C52.7787 63.1309 55.0303 60.8774 55.0303 58.1006V30.9377C55.0303 28.159 52.7787 25.9075 50 25.9075Z" fill="#3B4145"/>
<path d="M50 25.9075C50.5553 25.9075 51.0061 28.159 51.0061 30.9377V58.1006C51.0061 60.8772 50.5553 63.1309 50 63.1309C47.2213 63.1309 44.9697 60.8774 44.9697 58.1006V30.9377C44.9697 28.159 47.2213 25.9075 50 25.9075Z" fill="#525A61"/>
</g>
<defs>
<clipPath id="clip0">
<rect width="100" height="100" fill="white"/>
</clipPath>
</defs>
</svg>
